REM DIRINDEX 1\2\5,1\2\6,1\2\7,1\2\8,1\3\9,1\3\10,1\3\11,1\4\12,1\4\13,1\4\14,1\4\15,1\4\16
REM DIRNAME folder01,folder02,folder03,folder04,folder05,folder06,folder07,folder08,folder09,folder10,folder11,folder12,folder13,folder14,folder15,folder16
TITLE ""
FILE "1200_sec02_0299_0307.mp3" MP3
  TRACK 01 AUDIO
    TITLE "0:"
    INDEX 01 00:00:00
  TRACK 02 AUDIO
    TITLE "12:cjc034_04834"
    INDEX 01 00:00:17
  TRACK 03 AUDIO
    TITLE "0:"
    INDEX 01 00:01:28
  TRACK 04 AUDIO
    TITLE "13:cjc034_04835"
    INDEX 01 00:01:62
  TRACK 05 AUDIO
    TITLE "0:"
    INDEX 01 00:03:08
  TRACK 06 AUDIO
    TITLE "14:cjc034_04836"
    INDEX 01 00:03:35
  TRACK 07 AUDIO
    TITLE "0:"
    INDEX 01 00:04:46
  TRACK 08 AUDIO
    TITLE "15:cjc034_04837"
    INDEX 01 00:05:07
  TRACK 09 AUDIO
    TITLE "0:"
    INDEX 01 00:10:33
  TRACK 10 AUDIO
    TITLE "12:cjc034_04838"
    INDEX 01 00:11:64
  TRACK 11 AUDIO
    TITLE "0:"
    INDEX 01 00:12:60
  TRACK 12 AUDIO
    TITLE "13:cjc034_04839"
    INDEX 01 00:13:18
  TRACK 13 AUDIO
    TITLE "0:"
    INDEX 01 00:15:40
  TRACK 14 AUDIO
    TITLE "14:cjc034_04840"
    INDEX 01 00:15:72
  TRACK 15 AUDIO
    TITLE "0:"
    INDEX 01 00:16:67
  TRACK 16 AUDIO
    TITLE "15:cjc034_04841"
    INDEX 01 00:17:25
  TRACK 17 AUDIO
    TITLE "0:"
    INDEX 01 00:21:06
  TRACK 18 AUDIO
    TITLE "12:cjc034_04842"
    INDEX 01 00:22:38
  TRACK 19 AUDIO
    TITLE "0:"
    INDEX 01 00:23:48
  TRACK 20 AUDIO
    TITLE "13:cjc034_04843"
    INDEX 01 00:24:02
  TRACK 21 AUDIO
    TITLE "0:"
    INDEX 01 00:25:17
  TRACK 22 AUDIO
    TITLE "14:cjc034_04844"
    INDEX 01 00:25:52
  TRACK 23 AUDIO
    TITLE "0:"
    INDEX 01 00:26:64
  TRACK 24 AUDIO
    TITLE "15:cjc034_04845"
    INDEX 01 00:27:18
  TRACK 25 AUDIO
    TITLE "0:"
    INDEX 01 00:31:69
  TRACK 26 AUDIO
    TITLE "12:cjc034_04846"
    INDEX 01 00:33:28
  TRACK 27 AUDIO
    TITLE "0:"
    INDEX 01 00:34:36
  TRACK 28 AUDIO
    TITLE "13:cjc034_04847"
    INDEX 01 00:34:71
  TRACK 29 AUDIO
    TITLE "0:"
    INDEX 01 00:37:42
  TRACK 30 AUDIO
    TITLE "14:cjc034_04848"
    INDEX 01 00:38:04
  TRACK 31 AUDIO
    TITLE "0:"
    INDEX 01 00:39:13
  TRACK 32 AUDIO
    TITLE "15:cjc034_04849"
    INDEX 01 00:39:45
  TRACK 33 AUDIO
    TITLE "0:"
    INDEX 01 00:43:66
  TRACK 34 AUDIO
    TITLE "12:cjc034_04850"
    INDEX 01 00:45:24
  TRACK 35 AUDIO
    TITLE "0:"
    INDEX 01 00:46:51
  TRACK 36 AUDIO
    TITLE "13:cjc034_04851"
    INDEX 01 00:47:11
  TRACK 37 AUDIO
    TITLE "0:"
    INDEX 01 00:48:36
  TRACK 38 AUDIO
    TITLE "14:cjc034_04852"
    INDEX 01 00:48:67
  TRACK 39 AUDIO
    TITLE "0:"
    INDEX 01 00:50:21
  TRACK 40 AUDIO
    TITLE "15:cjc034_04853"
    INDEX 01 00:50:54
  TRACK 41 AUDIO
    TITLE "0:"
    INDEX 01 00:54:03
  TRACK 42 AUDIO
    TITLE "12:cjc034_04854"
    INDEX 01 00:55:38
  TRACK 43 AUDIO
    TITLE "0:"
    INDEX 01 00:56:57
  TRACK 44 AUDIO
    TITLE "13:cjc034_04855"
    INDEX 01 00:57:13
  TRACK 45 AUDIO
    TITLE "0:"
    INDEX 01 00:59:24
  TRACK 46 AUDIO
    TITLE "14:cjc034_04856"
    INDEX 01 00:59:61
  TRACK 47 AUDIO
    TITLE "0:"
    INDEX 01 01:01:03
  TRACK 48 AUDIO
    TITLE "15:cjc034_04857"
    INDEX 01 01:01:36
  TRACK 49 AUDIO
    TITLE "0:"
    INDEX 01 01:05:68
  TRACK 50 AUDIO
    TITLE "12:cjc034_04858"
    INDEX 01 01:07:25
  TRACK 51 AUDIO
    TITLE "0:"
    INDEX 01 01:08:52
  TRACK 52 AUDIO
    TITLE "13:cjc034_04859"
    INDEX 01 01:09:10
  TRACK 53 AUDIO
    TITLE "0:"
    INDEX 01 01:11:07
  TRACK 54 AUDIO
    TITLE "14:cjc034_04860"
    INDEX 01 01:11:39
  TRACK 55 AUDIO
    TITLE "0:"
    INDEX 01 01:12:66
  TRACK 56 AUDIO
    TITLE "15:cjc034_04861"
    INDEX 01 01:13:26
  TRACK 57 AUDIO
    TITLE "0:"
    INDEX 01 01:16:67
  TRACK 58 AUDIO
    TITLE "12:cjc034_04862"
    INDEX 01 01:18:27
  TRACK 59 AUDIO
    TITLE "0:"
    INDEX 01 01:19:36
  TRACK 60 AUDIO
    TITLE "13:cjc034_04863"
    INDEX 01 01:19:70
  TRACK 61 AUDIO
    TITLE "0:"
    INDEX 01 01:23:15
  TRACK 62 AUDIO
    TITLE "14:cjc034_04864"
    INDEX 01 01:23:46
  TRACK 63 AUDIO
    TITLE "0:"
    INDEX 01 01:24:55
  TRACK 64 AUDIO
    TITLE "15:cjc034_04865"
    INDEX 01 01:25:13
  TRACK 65 AUDIO
    TITLE "0:"
    INDEX 01 01:29:27
  TRACK 66 AUDIO
    TITLE "12:cjc034_04866"
    INDEX 01 01:30:60
  TRACK 67 AUDIO
    TITLE "0:"
    INDEX 01 01:31:69
  TRACK 68 AUDIO
    TITLE "13:cjc034_04867"
    INDEX 01 01:32:27
  TRACK 69 AUDIO
    TITLE "0:"
    INDEX 01 01:34:55
  TRACK 70 AUDIO
    TITLE "14:cjc034_04868"
    INDEX 01 01:35:12
  TRACK 71 AUDIO
    TITLE "0:"
    INDEX 01 01:36:21
  TRACK 72 AUDIO
    TITLE "15:cjc034_04869"
    INDEX 01 01:36:52
  TRACK 73 AUDIO
    TITLE "0:"
    INDEX 01 01:40:42
